<?xml version="1.0" encoding="UTF-8" standalone="no"?>
<svg
   xmlns:dc="http://purl.org/dc/elements/1.1/"
   xmlns:cc="http://creativecommons.org/ns#"
   xmlns:rdf="http://www.w3.org/1999/02/22-rdf-syntax-ns#"
   xmlns:svg="http://www.w3.org/2000/svg"
   xmlns="http://www.w3.org/2000/svg"
   xmlns:sodipodi="http://sodipodi.sourceforge.net/DTD/sodipodi-0.dtd"
   xmlns:inkscape="http://www.inkscape.org/namespaces/inkscape"
   width="5.55556in"
   height="4.16667in"
   viewBox="0 0 400 300"
   version="1.1"
   id="svg3"
   sodipodi:docname="logo.svg"
   inkscape:version="0.92.2 5c3e80d, 2017-08-06">
  <metadata
     id="metadata9">
    <rdf:RDF>
      <cc:Work
         rdf:about="">
        <dc:format>image/svg+xml</dc:format>
        <dc:type
           rdf:resource="http://purl.org/dc/dcmitype/StillImage" />
        <dc:title></dc:title>
      </cc:Work>
    </rdf:RDF>
  </metadata>
  <defs
     id="defs7" />
  <sodipodi:namedview
     pagecolor="#ffffff"
     bordercolor="#666666"
     borderopacity="1"
     objecttolerance="10"
     gridtolerance="10"
     guidetolerance="10"
     inkscape:pageopacity="0"
     inkscape:pageshadow="2"
     inkscape:window-width="954"
     inkscape:window-height="620"
     id="namedview5"
     showgrid="false"
     inkscape:zoom="0.58999955"
     inkscape:cx="166.66685"
     inkscape:cy="200.00015"
     inkscape:window-x="0"
     inkscape:window-y="0"
     inkscape:window-maximized="0"
     inkscape:current-layer="svg3"
     inkscape:pagecheckerboard="true" />
  <path
     id="f - "
     d="m 363,149.5 c -39,20 -79,-24 -120,0 m -43.14,141.01 c 19.52,-0.07 34.88,-3.74 53,-12.44 12.94,-6.22 22.09,-13.72 31.96,-24.06 34.72,-36.35 38.3,-94.76 10.29,-136 -13.54,-19.94 -30.09,-32.47 -52.25,-41.4 -9.5,-5.1 -32.5,-14.35 -43,-18.35 0,0 -40.75,-15.25 -40.75,-15.62 3.59,1.4 40.6,0.57 40.76,0.57 20.92,0.77 23.12,-31.06 1.99,-32.84 -2.36,-0.2 -3,0.01 -5.12,0.64 -2.13,0.63 -2.13,0.87 -3.88,1.69 -12.54,5.6 -8.95,20.93 2,22.33 6.32,0.81 10.47,-2.7 12.06,-7.17 0.44,-1.21 0.68,-2.49 0.73,-3.77 m -28.4,1.16 m -84.3,124.9 c 1.41,-5.11 3.2,-10.18 5.38,-15.15 5.38,-12.27 13.11,-23.44 22.53,-32.95 M 39,150 c 39,20 79,-24 120,0 m 93.5,16 c 2.5,8.25 1.5,16.25 10.75,16.5 9.25,0.25 10.5,-9.5 13.5,-16.5 1.75,-3.5 1,11 1.5,17.75 M 124,166 c 2.5,8.25 1.5,16.25 10.75,16.5 9.25,0.25 10.5,-9.5 13.5,-16.5 1.75,-3.5 1,11 1.5,17.75 M 200,158.5 c -12,24 15,22 0,48 m 6,-137.29 c 10.72,-0.19 27.04,3.39 37,7.39 22.16,8.93 38.71,21.46 52.25,41.4 28.01,41.24 24.43,99.65 -10.29,136 -9.87,10.34 -19.02,17.84 -31.96,24.06 -19.03,9.14 -35.04,12.18 -56,11.94 -9.42,-0.11 -26.2,-4.06 -35,-7.6 -11.89,-4.79 -22.2,-10.3 -32,-18.7 C 92.77,231.79 80.65,179.9 100.33,135 113.71,104.49 141.63,80.72 174,72.59 c 0,0 17,-3.38 17,-3.38 0,0 15,0 15,0 z"
     style="display:none;fill:none;fill-opacity:1;stroke:#010000;stroke-width:4.49999666;stroke-miterlimit:4;stroke-dasharray:none;stroke-opacity:1"
     inkscape:connector-curvature="0" />
  <path
     style="display:inline;fill:#000000;fill-opacity:1;stroke:#ffffff;stroke-width:6.78000021;stroke-linecap:square;stroke-linejoin:miter;stroke-miterlimit:4;stroke-dasharray:none;stroke-opacity:1;paint-order:stroke fill markers"
     d="m 241.91213,386.30719 c -57.37724,-13.17906 -97.11216,-48.06791 -115.15241,-101.10846 -7.41346,-21.79644 -9.31966,-51.44938 -4.89687,-76.17581 l 1.08431,-6.06199 -15.00459,3.06741 c -8.252522,1.68707 -19.633104,3.08023 -25.290184,3.09589 -9.789532,0.0271 -27.082823,-3.82806 -30.116351,-6.71377 -3.003467,-2.85712 2.234727,-3.28634 9.28925,-0.76117 8.674063,3.1049 30.615551,3.48944 42.977115,0.7532 16.47991,-3.64781 21.18669,-5.26759 21.20715,-7.29817 0.0406,-4.02472 11.2749,-27.74056 17.7917,-37.55853 15.11833,-22.77672 37.29142,-41.81672 62.08727,-53.31423 20.43108,-9.473625 34.23293,-12.524131 61.62587,-13.620638 l 23.72883,-0.949837 -34.74579,-13.295508 c -19.11018,-7.312531 -35.47036,-13.986265 -36.35596,-14.83052 -0.88559,-0.844256 -2.95911,-1.535011 -4.60782,-1.535011 -1.96824,0 -2.66263,-0.87307 -2.02206,-2.542375 0.81712,-2.129375 5.92332,-2.542375 31.43314,-2.542375 h 30.45755 l 4.82971,-4.829727 c 13.84071,-13.840702 2.83856,-36.972011 -15.9122,-33.45435 -7.07065,1.326463 -14.2207,7.10938 -14.85282,12.012871 -0.87531,6.790001 1.83225,12.253623 7.16761,14.463604 6.83672,2.831856 13.52344,0.557312 16.47683,-5.604723 2.39429,-4.995502 5.41994,-6.171142 5.41994,-2.105956 0,3.66524 -8.75565,12.512113 -12.71188,12.844322 -8.09658,0.679877 -11.57712,-0.405126 -16.23208,-5.060079 -9.57684,-9.576827 -4.64587,-23.613558 10.41165,-29.638387 9.26716,-3.7079806 18.07258,-1.359633 25.15714,6.709252 9.12916,10.397528 6.67774,27.681837 -5.10976,36.027693 -3.17836,2.250354 -9.19855,3.056384 -27.78628,3.72023 l -23.72883,0.847458 8.47458,3.197855 c 61.86196,23.343398 103.07455,41.757151 120.64708,53.905021 22.48005,15.54045 41.86338,40.02317 52.36444,66.14056 l 5.64704,14.0448 13.21316,3.01953 c 14.78927,3.3797 38.12732,3.03938 47.47055,-0.69222 5.69373,-2.27402 9.83835,-0.77152 5.52409,2.0026 -9.42935,6.06312 -37.27469,7.53593 -54.51557,2.88344 -5.30714,-1.43214 -10.0044,-2.24887 -10.43833,-1.81493 -0.43391,0.43393 -0.11407,3.14195 0.71068,6.01785 5.41258,18.8726 3.14885,54.13307 -5.03982,78.50136 -11.95213,35.56778 -39.95484,67.35812 -73.88833,83.88246 -24.75123,12.0529 -38.07499,15.38955 -64.40682,16.12925 -14.91725,0.41905 -25.37619,-0.14865 -32.38193,-1.75789 z m 58.30086,-5.23463 c 27.44821,-5.58148 52.2087,-19.00103 73.28092,-39.71637 34.11847,-33.54063 48.61026,-80.15867 40.02408,-128.75171 l -1.93569,-10.95502 -7.62713,-2.24526 c -27.14512,-7.99092 -50.57485,-9.31768 -66.10174,-3.74317 -12.51227,4.49217 -12.18925,4.43741 -13.01323,2.20624 -0.41283,-1.11788 3.51029,-3.63799 9.11017,-5.85212 13.5984,-5.37665 39.37813,-5.38221 59.60786,-0.0136 7.79863,2.06991 14.53054,3.41227 14.95978,2.98303 1.21461,-1.21461 -6.97582,-20.46257 -13.28385,-31.21776 C 386.62973,149.097 359.95273,123.33262 344.16243,114.44301 311.38993,95.992782 274.40346,89.824614 240.92944,97.227023 190.9943,108.26962 152.70438,139.80377 134.27815,185.06106 c -2.00623,4.92756 -3.354,9.25292 -2.99504,9.61187 0.35897,0.35896 6.75105,-0.81721 14.20464,-2.6137 18.93013,-4.56261 40.2745,-4.49978 54.27647,0.15983 6.01351,2.00117 11.33573,4.28907 11.82716,5.08423 1.98665,3.21446 -2.52172,3.05117 -11.18653,-0.40519 -12.10483,-4.82861 -36.02424,-5.09851 -54.07699,-0.61026 -6.99153,1.73824 -13.97533,3.80718 -15.51956,4.59765 -4.47727,2.2919 -7.10541,21.81253 -6.16393,45.78292 0.71727,18.26198 1.58536,23.17837 6.74631,38.20721 8.13316,23.68402 17.83243,39.12015 36.07783,57.4169 12.8941,12.93038 18.04868,16.74869 32.77926,24.28159 23.71486,12.12726 42.91097,16.96345 67.76181,17.07166 11.03709,0.0481 24.66968,-1.04126 32.20341,-2.57321 z"
     id="path4510"
     inkscape:connector-curvature="0"
     transform="scale(0.74999943)" />
  <path
     style="display:inline;fill:#fffffe;fill-opacity:1;stroke:none;stroke-width:11.49153423;stroke-linecap:square;stroke-linejoin:miter;stroke-miterlimit:4;stroke-dasharray:none;stroke-opacity:1;paint-order:stroke fill markers"
     d="m 243.78556,381.03238 c -25.4456,-6.00989 -48.57407,-16.33242 -63.89546,-28.51735 -21.29964,-16.93935 -39.61659,-43.58752 -49.02845,-71.32837 -3.64866,-10.7542 -4.02533,-14.71929 -4.02533,-42.37292 0,-20.84414 0.6526,-31.64661 2.06013,-34.1013 2.71518,-4.73519 20.21124,-9.23267 40.34423,-10.37076 12.27607,-0.69395 17.86953,-0.15522 28.40876,2.73618 15.57644,4.27333 14.78016,4.20889 14.78016,1.19607 0,-1.45496 -4.38407,-3.86311 -11.10397,-6.09935 -13.66851,-4.54859 -38.2858,-4.95222 -55.7013,-0.91329 -6.4125,1.48716 -12.02807,2.33496 -12.47903,1.884 -1.44712,-1.44712 6.67511,-19.48147 13.59791,-30.19238 20.89394,-32.32699 50.8318,-53.59231 89.1235,-63.305797 37.10654,-9.412845 81.55202,-1.947919 113.18572,19.010327 13.04112,8.6401 35.97288,31.40086 43.51392,43.18942 6.26105,9.78759 15.50272,30.19758 14.24362,31.45668 -0.40295,0.40295 -6.35843,-0.62369 -13.2344,-2.28143 -8.46175,-2.04005 -19.07445,-3.00475 -32.84077,-2.98524 -17.20466,0.0244 -21.57968,0.59416 -28.38985,3.69735 -4.58411,2.08885 -8.05086,4.80434 -8.05086,6.30622 0,1.45072 0.19068,2.62784 0.42373,2.61581 0.23305,-0.012 5.25863,-1.53745 11.16796,-3.38983 14.69733,-4.60713 36.31016,-4.48226 57.26333,0.33084 10.38721,2.38602 16.63447,4.69327 17.6018,6.5007 2.93418,5.4826 4.89129,35.28876 3.31651,50.51 -5.74284,55.50853 -44.35166,103.14865 -98.44255,121.47006 -12.90559,4.3713 -16.70525,4.85712 -41.33081,5.28442 -14.91527,0.2588 -28.64409,0.11034 -30.5085,-0.33006 z m 28.72157,-108.98985 c 5.33183,-10.31061 5.14957,-17.6195 -0.75903,-30.43837 -5.42649,-11.77293 -5.88438,-16.51504 -2.57896,-26.70924 0.81844,-2.52414 0.32562,-3.90029 -1.67115,-4.66652 -4.30449,-1.65179 -5.50567,-0.12717 -7.72978,9.81121 -1.96088,8.76213 -1.82749,9.59716 3.27475,20.50039 5.92178,12.65456 6.64446,20.45499 2.61668,28.24387 -2.23289,4.31793 -2.30649,5.47629 -0.42373,6.66954 3.59331,2.27734 4.56558,1.82126 7.27122,-3.41088 z m -81.18694,-29.76191 4.16025,-4.16025 v 4.16025 c 0,2.98814 0.92687,4.16025 3.2898,4.16025 4.95154,0 5.57193,-2.34474 4.27693,-16.16435 -1.01851,-10.86897 -1.6374,-12.64924 -4.39741,-12.64924 -2.24438,0 -4.39962,2.68077 -7.15394,8.89832 -4.80262,10.84138 -8.13384,13.86472 -13.72926,12.46036 -3.19896,-0.80289 -4.63647,-2.76471 -6.0379,-8.24012 -2.832,-11.06473 -2.9327,-11.21983 -6.65304,-10.24694 -4.15556,1.08671 -4.16147,1.14987 -1.06878,11.42608 3.44876,11.45938 6.75705,14.51589 15.71162,14.51589 5.64094,0 8.44809,-1.00662 11.60173,-4.16025 z m 171.18656,0 4.16026,-4.16025 v 4.27813 c 0,3.46711 0.72295,4.17546 3.81356,3.73652 4.51961,-0.64189 5.54548,-5.91087 3.8277,-19.65948 -1.00065,-8.00896 -1.54858,-8.98856 -4.76831,-8.52479 -2.53251,0.36479 -4.44943,2.72702 -6.30935,7.7751 -4.50946,12.23927 -10.20346,16.51935 -16.58931,12.46992 -1.226,-0.77744 -3.19828,-5.15135 -4.38284,-9.71982 -1.73976,-6.70978 -2.7773,-8.19388 -5.39802,-7.72143 -4.42214,0.7972 -4.3377,0.27068 -1.68395,10.50113 2.85385,11.0019 7.39967,15.18522 16.50108,15.18522 4.82072,0 7.82191,-1.15297 10.82918,-4.16025 z"
     id="path4512"
     inkscape:connector-curvature="0"
     transform="scale(0.74999943)" />
  <path
     style="fill:#000001;fill-opacity:1;stroke:#fffff6;stroke-width:11.49153423;stroke-linecap:square;stroke-linejoin:miter;stroke-miterlimit:4;stroke-dasharray:none;stroke-opacity:1;paint-order:stroke fill markers"
     d="m 171.37663,242.94256 c -4.09058,-2.38411 -8.85901,-18.71226 -5.98499,-20.49391 1.50204,-0.93115 2.69493,0.91349 4.07988,6.30895 2.38589,9.29494 4.93929,12.59852 9.73761,12.59852 6.07496,0 10.76329,-4.63063 13.72923,-13.56025 3.1989,-9.63099 6.70221,-10.97808 8.26242,-3.17705 2.01402,10.07009 1.27297,20.12713 -1.48305,20.12713 -1.80523,0 -2.54238,-1.83199 -2.54238,-6.31839 v -6.31838 l -5.20814,6.31838 c -4.31589,5.23592 -6.27591,6.30956 -11.44069,6.26685 -3.4279,-0.0283 -7.54535,-0.81668 -9.14989,-1.75185 z"
     id="path4514"
     inkscape:connector-curvature="0"
     transform="scale(0.74999943)" />
  <path
     style="fill:#000001;fill-opacity:1;stroke:#fffff6;stroke-width:11.49153423;stroke-linecap:square;stroke-linejoin:miter;stroke-miterlimit:4;stroke-dasharray:none;stroke-opacity:1;paint-order:stroke fill markers"
     d="m 266.16956,274.1921 c -0.58429,-0.58429 0.0513,-3.21591 1.41243,-5.84804 3.79514,-7.33899 2.91003,-16.57582 -2.66317,-27.79225 -2.76735,-5.56949 -5.03156,-11.74805 -5.03156,-13.73014 0,-5.90756 3.55055,-14.27913 6.05607,-14.27913 1.80572,0 1.96014,0.98493 0.68165,4.34762 -2.77187,7.29058 -1.89001,13.40932 3.63393,25.21369 4.23629,9.05276 5.07608,12.61611 4.22607,17.93178 -1.77818,11.12017 -5.32074,17.15115 -8.31542,14.15647 z"
     id="path4516"
     inkscape:connector-curvature="0"
     transform="scale(0.74999943)" />
  <path
     style="fill:#000001;fill-opacity:1;stroke:#fffff6;stroke-width:5.99999998;stroke-linecap:square;stroke-linejoin:miter;stroke-miterlimit:4;stroke-dasharray:none;stroke-opacity:1;paint-order:stroke fill markers"
     d="m 341.24326,241.35612 c -1.86441,-1.86441 -3.40803,-3.96187 -3.43027,-4.66102 -0.0222,-0.69916 -0.70463,-4.13136 -1.51642,-7.62713 -2.23545,-9.62633 2.10239,-8.18987 5.0716,1.67944 4.56922,15.18756 16.95439,13.64215 22.88697,-2.85583 4.99431,-13.8887 9.12089,-10.30777 9.16839,7.95606 0.0177,6.78995 -0.57924,8.89831 -2.51923,8.89831 -1.79833,0 -2.55815,-1.86012 -2.59628,-6.35594 -0.0505,-5.95902 -0.20444,-6.14425 -2.46447,-2.9661 -5.23047,7.35527 -8.33765,9.32204 -14.72734,9.32204 -4.22323,0 -7.66475,-1.18163 -9.87295,-3.38983 z"
     id="path4518"
     inkscape:connector-curvature="0"
     transform="scale(0.74999943)" />
</svg>
